<?xml version="1.0" encoding="UTF-8"?>
<svg xmlns="http://www.w3.org/2000/svg" xmlns:xlink="http://www.w3.org/1999/xlink" width="150.91pt" height="33.73pt" viewBox="0 0 150.91 33.73" version="1.1">
<defs>
<clipPath id="clip1">
  <path d="M 124 7 L 150.910156 7 L 150.910156 26 L 124 26 Z M 124 7 "/>
</clipPath>
<clipPath id="clip2">
  <path d="M 68 7 L 97 7 L 97 33.730469 L 68 33.730469 Z M 68 7 "/>
</clipPath>
<clipPath id="clip3">
  <path d="M 71 28 L 77 28 L 77 33.730469 L 71 33.730469 Z M 71 28 "/>
</clipPath>
<clipPath id="clip4">
  <path d="M 0 0 L 29 0 L 29 33.730469 L 0 33.730469 Z M 0 0 "/>
</clipPath>
</defs>
<g id="surface1">
<path style=" stroke:none;fill-rule:evenodd;fill:rgb(13.699341%,12.199402%,12.5%);fill-opacity:1;" d="M 38.410156 25.484375 L 29.269531 25.484375 L 37.40625 16.054688 L 29.519531 7.558594 L 39.132813 7.558594 L 42.984375 12.238281 L 46.835938 7.558594 L 56.125 7.558594 L 48.671875 15.835938 L 57.457031 25.484375 L 48.023438 25.484375 L 43.128906 19.546875 L 38.410156 25.484375 "/>
<path style=" stroke:none;fill-rule:evenodd;fill:rgb(13.699341%,12.199402%,12.5%);fill-opacity:1;" d="M 66.597656 5.398438 L 59.363281 5.398438 L 59.363281 0.105469 L 66.597656 0.105469 Z M 66.597656 25.484375 L 59.363281 25.484375 L 59.363281 7.558594 L 66.597656 7.558594 L 66.597656 25.484375 "/>
<path style=" stroke:none;fill-rule:evenodd;fill:rgb(13.699341%,12.199402%,12.5%);fill-opacity:1;" d="M 105.046875 18.070313 L 123.191406 18.070313 L 123.191406 14.253906 C 123.191406 11.984375 122.398438 10.257813 120.816406 9.070313 C 119.195313 7.882813 116.894531 7.304688 113.867188 7.304688 L 107.136719 7.304688 C 104.113281 7.304688 101.808594 7.882813 100.226563 9.105469 C 98.601563 10.292969 97.8125 12.023438 97.8125 14.253906 L 97.8125 19.113281 C 97.8125 21.238281 98.601563 22.894531 100.226563 24.007813 C 101.808594 25.160156 104.113281 25.703125 107.171875 25.703125 L 113.867188 25.703125 C 117.179688 25.703125 119.558594 25.269531 120.996094 24.332031 C 122.4375 23.398438 123.15625 21.886719 123.15625 19.796875 L 123.15625 19.507813 L 116.351563 19.507813 C 116.171875 20.265625 115.882813 20.769531 115.414063 21.058594 C 114.949219 21.308594 113.902344 21.453125 112.355469 21.453125 L 109.332031 21.453125 C 107.785156 21.453125 106.667969 21.238281 106.019531 20.769531 C 105.335938 20.335938 105.011719 19.582031 105.011719 18.574219 C 105.011719 18.539063 105.011719 18.464844 105.011719 18.320313 C 105.046875 18.214844 105.046875 18.140625 105.046875 18.070313 Z M 105.046875 14.074219 C 105.046875 13.210938 105.371094 12.632813 105.984375 12.273438 C 106.597656 11.914063 107.640625 11.734375 109.152344 11.734375 L 112.140625 11.734375 C 113.617188 11.734375 114.660156 11.914063 115.273438 12.273438 C 115.882813 12.597656 116.171875 13.210938 116.171875 14.074219 L 116.171875 14.144531 L 105.046875 14.144531 L 105.046875 14.074219 "/>
<g clip-path="url(#clip1)" clip-rule="nonzero">
<path style=" stroke:none;fill-rule:evenodd;fill:rgb(13.699341%,12.199402%,12.5%);fill-opacity:1;" d="M 132.050781 25.484375 L 124.882813 25.484375 L 124.882813 7.664063 L 132.050781 7.664063 L 132.050781 10.402344 C 132.875 9.320313 133.957031 8.53125 135.253906 8.0625 C 136.550781 7.59375 138.492188 7.378906 141.085938 7.378906 C 144.359375 7.378906 146.808594 7.917969 148.464844 8.996094 C 150.085938 10.113281 150.910156 11.734375 150.910156 13.894531 L 150.910156 25.484375 L 143.675781 25.484375 L 143.675781 16.449219 C 143.675781 14.867188 143.277344 13.820313 142.488281 13.316406 C 141.660156 12.8125 140.148438 12.5625 137.878906 12.5625 C 135.792969 12.5625 134.277344 12.886719 133.414063 13.535156 C 132.515625 14.183594 132.050781 15.296875 132.050781 16.808594 L 132.050781 25.484375 "/>
</g>
<g clip-path="url(#clip2)" clip-rule="nonzero">
<path style=" stroke:none;fill-rule:evenodd;fill:rgb(13.699341%,12.199402%,12.5%);fill-opacity:1;" d="M 88.992188 7.628906 C 88.957031 8.53125 88.957031 9.539063 88.777344 10.222656 C 87.550781 8.855469 84.851563 8.0625 82.367188 7.664063 C 81 7.449219 79.667969 7.339844 78.695313 7.339844 C 70.308594 7.339844 68.148438 9.683594 68.148438 16.738281 C 68.148438 25.269531 71.351563 25.378906 80.316406 25.378906 C 80.894531 25.378906 81.613281 25.378906 82.367188 25.378906 C 84.78125 25.378906 87.769531 25.160156 88.847656 23.792969 L 88.847656 26.53125 C 88.453125 29.375 84.09375 29.085938 82.367188 29.050781 C 82.261719 29.050781 82.152344 29.050781 82.082031 29.050781 C 80.855469 29.050781 79.414063 29.121094 78.121094 28.871094 L 78.121094 33.476563 L 89.351563 33.476563 C 90.214844 33.476563 96.589844 31.535156 96.550781 28.871094 L 96.550781 7.628906 Z M 82.367188 20.660156 C 78.480469 20.660156 75.78125 20.914063 75.78125 16.628906 C 75.78125 11.949219 77.761719 12.308594 82.222656 12.308594 L 82.367188 12.308594 C 86.402344 12.308594 88.957031 12.308594 88.957031 16.484375 C 88.957031 21.203125 85.464844 20.660156 82.367188 20.660156 "/>
</g>
<g clip-path="url(#clip3)" clip-rule="nonzero">
<path style=" stroke:none;fill-rule:evenodd;fill:rgb(94.898987%,39.599609%,19.198608%);fill-opacity:1;" d="M 71.390625 28.90625 L 76.5 28.90625 L 76.5 33.476563 L 71.390625 33.476563 L 71.390625 28.90625 "/>
</g>
<g clip-path="url(#clip4)" clip-rule="nonzero">
<path style=" stroke:none;fill-rule:evenodd;fill:rgb(94.898987%,39.599609%,19.198608%);fill-opacity:1;" d="M 28.078125 4.734375 C 28.042969 1.425781 25.007813 0.246094 22.425781 -0.00390625 L 0.0351563 -0.00390625 L 0 33.730469 L 28.078125 33.730469 L 28.078125 4.734375 "/>
</g>
<path style=" stroke:none;fill-rule:evenodd;fill:rgb(100%,100%,100%);fill-opacity:1;" d="M 25.957031 10.507813 C 25.234375 7.738281 21.816406 7.054688 20.050781 7.054688 L 3.816406 7.054688 L 3.816406 11.375 C 6.585938 11.300781 13.394531 11.15625 14.363281 11.15625 C 15.660156 11.15625 18.613281 10.90625 19.476563 12.488281 L 19.476563 12.996094 L 19.480469 12.996094 L 19.480469 15.015625 C 17.492188 13.402344 13.425781 13.402344 11.089844 13.402344 C 5.9375 13.402344 1.730469 13.691406 1.730469 19.34375 C 1.730469 19.457031 1.726563 19.644531 1.738281 19.871094 C 1.953125 25.101563 6.074219 25.378906 11.089844 25.378906 C 13.644531 25.378906 17.53125 25.269531 19.367188 23.183594 C 19.441406 23.828125 19.441406 24.476563 19.332031 25.089844 L 26.136719 25.089844 L 26.136719 11.660156 C 26.136719 11.335938 26.066406 10.796875 25.957031 10.507813 Z M 16.558594 21.417969 L 11.125 21.417969 C 9.757813 21.417969 8.632813 20.773438 8.351563 19.878906 C 8.3125 19.714844 8.28125 19.527344 8.28125 19.34375 C 8.28125 18.226563 9.539063 17.363281 11.125 17.363281 L 16.558594 17.363281 C 17.542969 17.363281 19.03125 18.039063 19.34375 19.039063 C 19.378906 19.167969 19.40625 19.300781 19.40625 19.4375 C 19.40625 20.554688 18.144531 21.417969 16.558594 21.417969 "/>
</g>
</svg>
